<?xml version="1.0" standalone="no"?>
<!DOCTYPE svg PUBLIC "-//W3C//DTD SVG 20010904//EN"
 "http://www.w3.org/TR/2001/REC-SVG-20010904/DTD/svg10.dtd">
<svg version="1.0" xmlns="http://www.w3.org/2000/svg"
 width="764.000000pt" height="764.000000pt" viewBox="0 0 764.000000 764.000000"
 preserveAspectRatio="xMidYMid meet">
<metadata>
Created by potrace 1.14, written by Peter Selinger 2001-2017
</metadata>
<g transform="translate(0.000000,764.000000) scale(0.100000,-0.100000)"
fill="#000000" stroke="none">
<path d="M375 7611 c1 -14 3 -26 4 -26 1 0 4 -25 7 -55 2 -30 7 -66 10 -80 6
-31 14 -85 18 -125 2 -16 6 -48 10 -70 4 -22 9 -56 11 -75 3 -19 7 -51 10 -70
2 -19 7 -53 10 -75 3 -22 7 -51 9 -65 3 -14 7 -45 10 -70 3 -25 8 -54 10 -65
2 -11 7 -45 10 -76 4 -31 9 -67 12 -80 3 -13 7 -44 9 -69 2 -25 6 -56 9 -70 7
-44 18 -114 22 -152 2 -21 6 -50 9 -65 6 -34 12 -73 20 -133 3 -25 7 -56 9
-70 3 -14 8 -47 11 -75 4 -27 9 -59 10 -70 2 -11 6 -38 8 -60 3 -22 8 -56 11
-75 8 -57 16 -108 32 -225 19 -132 21 -151 34 -235 6 -36 11 -72 11 -80 0 -8
8 -60 16 -115 9 -55 17 -113 19 -130 6 -63 14 -121 21 -155 3 -19 7 -44 8 -55
2 -19 10 -79 22 -155 6 -41 9 -58 17 -125 4 -27 9 -66 12 -85 3 -19 7 -48 9
-65 4 -31 14 -102 21 -145 2 -14 6 -41 8 -60 2 -19 7 -51 10 -70 8 -48 16
-108 21 -155 3 -22 6 -49 9 -60 2 -11 7 -45 11 -75 4 -30 9 -63 11 -74 2 -10
6 -44 10 -75 3 -31 8 -65 10 -76 2 -11 7 -42 10 -70 3 -27 7 -56 10 -63 2 -8
7 -37 10 -65 3 -29 7 -63 10 -77 2 -14 6 -43 9 -65 5 -38 10 -75 20 -140 3
-16 6 -43 8 -60 16 -121 22 -168 32 -221 2 -18 7 -52 10 -75 3 -24 8 -57 11
-73 3 -16 7 -50 9 -75 2 -25 5 -46 5 -46 3 0 10 -42 14 -85 3 -25 7 -56 10
-70 2 -14 7 -44 10 -67 3 -24 9 -62 12 -85 3 -24 8 -54 10 -68 3 -14 7 -43 9
-65 2 -22 6 -55 9 -73 11 -70 17 -112 20 -139 8 -57 18 -129 22 -153 3 -14 7
-43 9 -65 3 -22 12 -87 20 -145 9 -58 18 -121 20 -140 7 -54 26 -185 41 -280
2 -14 11 -77 19 -140 9 -63 19 -128 21 -145 3 -16 6 -37 6 -45 0 -8 4 -37 9
-65 4 -27 11 -72 15 -100 3 -27 7 -59 9 -70 2 -11 6 -42 9 -70 3 -27 8 -61 11
-75 4 -27 7 -42 31 -215 18 -124 24 -170 26 -202 1 -13 5 -23 9 -23 9 0 68 25
147 61 35 16 65 29 67 29 2 0 39 16 82 35 43 20 87 40 98 45 41 17 112 49 178
79 38 17 70 31 72 31 2 0 39 16 82 36 43 19 96 44 118 53 22 10 66 30 98 45
32 14 59 26 62 26 3 0 105 45 180 80 11 5 124 55 250 111 127 55 253 111 280
124 48 22 125 56 135 60 13 5 61 26 123 54 37 17 69 31 72 31 2 0 48 20 101
45 53 25 98 45 101 45 2 0 42 18 89 40 47 22 87 40 89 40 4 0 56 23 183 81 35
16 74 32 88 35 13 3 24 10 24 15 0 5 3 8 8 7 4 -1 23 5 42 14 19 9 91 40 160
71 120 53 200 88 285 127 22 10 74 33 115 50 41 18 98 43 125 55 151 69 187
85 190 85 2 0 32 13 67 29 35 16 99 44 143 64 80 35 182 80 220 97 114 53 179
80 189 80 7 0 18 6 24 12 7 7 16 13 20 14 4 0 23 7 42 16 19 9 69 30 110 48
41 18 81 37 88 42 6 6 12 7 12 3 0 -4 6 -3 13 3 6 5 82 40 167 77 85 37 172
75 193 86 21 10 44 19 52 19 8 0 15 4 15 9 0 7 28 19 60 25 3 1 25 11 50 23
88 42 205 95 215 97 13 4 81 34 175 79 73 35 150 94 150 115 0 6 3 12 8 14 13
6 59 83 66 113 24 93 27 151 11 220 -31 131 -87 198 -267 319 -65 43 -118 82
-118 86 0 4 8 11 17 14 9 4 76 44 148 88 136 85 198 139 231 198 10 19 22 37
25 40 25 21 43 205 26 270 -27 102 -109 212 -190 255 -20 11 -37 23 -37 27 0
5 -5 8 -10 8 -6 0 -53 27 -106 60 -52 33 -97 60 -100 60 -3 0 -10 5 -17 10
-23 20 -268 170 -278 170 -5 0 -9 5 -9 10 0 6 -4 10 -10 10 -5 0 -59 32 -120
70 -61 39 -115 70 -120 70 -6 0 -10 5 -10 10 0 6 -4 10 -10 10 -5 0 -42 21
-82 47 -40 27 -77 50 -83 53 -22 11 -160 95 -165 100 -3 3 -22 14 -42 25 -21
11 -38 23 -38 27 0 5 -4 8 -10 8 -5 0 -65 34 -132 76 -68 42 -152 95 -188 117
-36 22 -76 47 -90 56 -14 9 -33 20 -42 26 -9 5 -53 33 -98 60 -45 28 -94 57
-108 66 -15 9 -89 55 -165 103 -76 47 -142 86 -148 86 -5 0 -9 4 -9 9 0 5 -14
14 -31 21 -17 7 -36 18 -42 25 -7 6 -37 26 -67 43 -30 18 -62 37 -70 42 -8 5
-109 68 -225 139 -115 71 -235 144 -265 164 -102 65 -359 222 -380 232 -11 5
-20 13 -20 17 0 5 -5 8 -11 8 -6 0 -34 16 -63 35 -29 19 -58 35 -65 35 -6 0
-11 3 -11 8 0 4 -26 22 -57 40 -32 18 -78 46 -103 62 -25 16 -72 45 -105 65
-33 19 -116 71 -185 115 -69 44 -132 83 -140 87 -8 3 -40 23 -70 42 -30 20
-72 45 -93 56 -20 11 -37 23 -37 27 0 5 -4 8 -9 8 -5 0 -61 33 -125 73 -64 39
-124 77 -134 82 -22 13 -123 76 -292 180 -74 46 -181 112 -238 147 -56 35
-114 70 -127 78 -13 8 -68 42 -122 75 -54 33 -99 63 -101 67 -2 5 -7 8 -12 8
-9 0 -101 55 -148 88 -29 21 -32 22 -33 5 -1 -10 -2 -169 -3 -353 0 -215 -5
-335 -11 -336 -15 -2 -55 18 -55 28 0 4 -6 8 -13 8 -8 0 -22 9 -32 20 -10 11
-24 20 -32 20 -7 0 -13 4 -13 8 0 5 -11 14 -25 20 -14 7 -31 17 -38 22 -25 22
-190 130 -197 130 -5 0 -10 4 -12 8 -3 8 -203 143 -223 151 -5 2 -12 7 -15 11
-3 3 -96 67 -207 142 -184 124 -201 133 -198 109z"/>
</g>
</svg>
